<svg width="76.227" height="75.317" viewBox="0 0 76.227 75.317" xmlns="http://www.w3.org/2000/svg"><g id="svgGroup" stroke-linecap="round" fill-rule="evenodd" font-size="9pt" stroke="#ffffff" stroke-width="0.25mm" fill="#ffffff" style="stroke:#ffffff;stroke-width:0.25mm;fill:#ffffff"><path d="M 15.267 74.15 L 15.867 73.95 L 15.667 73.95 L 14.867 74.25 L 14.767 74.25 L 13.367 74.65 Q 13.167 74.75 12.967 74.65 L 11.767 75.25 Q 11.367 75.45 11.167 75.05 Q 10.967 74.65 11.367 74.45 L 12.467 73.95 L 10.667 73.95 L 9.567 74.35 Q 9.467 74.45 9.367 74.45 L 8.267 74.95 Q 7.767 75.15 7.567 74.75 L 7.567 74.45 L 6.067 74.85 Q 5.667 75.05 5.567 74.65 Q 5.367 74.15 5.867 74.05 L 7.267 73.55 L 8.067 73.05 L 6.967 73.45 L 5.467 74.05 L 3.667 74.65 Q 3.267 74.85 3.067 74.45 Q 2.967 74.05 3.467 73.85 Q 3.567 73.65 3.667 73.65 L 5.067 73.15 L 6.467 72.55 L 6.567 72.55 L 7.067 72.35 L 7.067 72.25 Q 6.867 72.05 6.567 72.05 L 5.167 72.65 L 5.067 72.65 L 3.467 73.15 L 2.067 73.75 Q 1.667 73.95 1.467 73.55 Q 1.267 73.15 1.667 72.95 L 3.167 72.35 L 3.167 72.25 L 4.767 71.85 L 6.267 71.15 L 6.467 71.15 L 6.167 70.25 L 4.367 71.05 L 2.967 71.75 L 2.867 71.75 L 1.467 72.15 Q 1.067 72.35 0.867 71.95 Q 0.767 71.45 1.167 71.35 L 2.567 70.85 L 4.067 70.25 L 6.067 69.35 Q 6.067 69.05 6.017 68.8 Q 5.967 68.55 5.867 68.45 L 4.167 69.15 L 4.167 69.25 L 2.667 69.75 L 1.067 70.35 Q 0.667 70.45 0.467 70.05 Q 0.367 69.65 0.767 69.45 L 2.267 68.95 L 3.867 68.35 L 5.467 67.65 L 6.267 67.25 L 6.267 67.15 Q 6.367 66.55 6.067 66.25 L 4.467 66.85 L 2.767 67.35 L 1.267 67.95 Q 0.867 68.15 0.667 67.75 Q 0.467 67.35 0.967 67.15 L 2.467 66.45 L 2.567 66.45 L 4.167 65.95 L 5.667 65.45 L 6.467 65.15 L 6.467 64.05 L 5.767 64.25 L 4.267 64.85 L 2.667 65.35 L 1.267 65.95 Q 0.867 66.05 0.667 65.65 Q 0.567 65.25 0.967 65.05 L 2.367 64.55 L 2.467 64.55 L 2.467 64.45 L 3.967 64.05 L 5.467 63.35 L 5.567 63.35 L 6.567 63.05 Q 6.567 62.45 6.067 62.25 L 4.367 62.85 L 2.667 63.55 L 2.567 63.55 L 2.567 63.65 L 0.867 64.05 Q 0.367 64.15 0.267 63.75 Q 0.167 63.35 0.567 63.15 L 2.367 62.75 L 4.067 61.95 L 5.867 61.45 L 6.667 61.15 L 6.667 60.25 L 6.067 60.55 L 4.467 61.05 L 3.067 61.75 L 1.267 62.35 Q 0.867 62.55 0.667 62.15 Q 0.567 61.75 0.967 61.55 L 2.667 60.95 L 4.067 60.25 L 4.167 60.25 L 5.667 59.65 L 6.667 59.25 L 6.667 58.15 L 5.767 58.45 L 4.067 58.95 L 2.367 59.55 L 0.767 60.35 Q 0.367 60.55 0.167 60.15 Q -0.033 59.75 0.367 59.55 L 1.967 58.75 L 3.767 58.05 L 5.567 57.55 L 6.567 57.25 L 6.567 56.35 L 6.067 56.55 L 4.467 57.35 L 2.967 58.05 L 1.267 58.75 Q 0.867 58.95 0.667 58.55 Q 0.467 58.15 0.867 57.95 L 2.567 57.15 L 4.067 56.55 L 5.667 55.75 L 6.567 55.35 Q 6.467 54.85 6.467 54.35 L 5.767 54.65 L 4.167 55.25 L 2.467 55.75 L 0.767 56.45 Q 0.367 56.55 0.167 56.15 Q 0.067 55.75 0.467 55.55 L 2.067 54.95 L 2.167 54.95 L 3.867 54.35 L 5.467 53.75 L 6.367 53.45 Q 6.267 52.85 5.867 52.75 L 4.367 53.55 L 2.967 54.15 L 2.967 54.25 L 2.867 54.25 L 1.167 54.75 Q 0.767 54.95 0.567 54.45 Q 0.467 54.05 0.867 53.95 L 2.567 53.35 L 3.967 52.75 L 5.467 51.95 L 6.167 51.65 Q 6.067 51.05 5.867 50.85 L 4.167 51.45 L 2.567 51.95 L 1.167 52.45 Q 0.767 52.55 0.567 52.15 Q 0.467 51.65 0.867 51.55 L 2.367 51.05 L 3.867 50.65 L 5.967 49.75 Q 5.967 49.35 5.867 48.95 L 4.467 49.45 L 2.967 50.15 L 2.867 50.15 L 1.267 50.75 Q 0.867 50.95 0.667 50.45 Q 0.567 50.05 0.967 49.95 L 2.567 49.35 L 4.067 48.65 L 4.167 48.55 L 5.767 47.95 L 5.767 46.85 L 4.367 47.45 L 2.967 48.25 L 1.367 48.75 Q 0.967 48.95 0.767 48.55 Q 0.667 48.15 1.067 47.95 L 2.567 47.45 L 3.967 46.65 L 4.067 46.65 L 5.667 45.95 Q 5.567 45.45 5.567 44.95 L 4.567 45.35 L 2.867 45.95 L 1.367 46.75 Q 0.967 46.95 0.767 46.55 Q 0.567 46.15 0.967 45.95 L 2.467 45.15 L 4.267 44.45 L 5.567 44.05 Q 5.467 43.55 5.467 43.05 L 4.267 43.45 L 2.467 43.95 L 0.767 44.65 Q 0.367 44.85 0.167 44.45 Q -0.033 44.05 0.467 43.85 L 2.167 43.05 L 2.267 43.05 L 3.967 42.55 L 5.467 42.05 Q 5.367 41.55 5.367 41.05 L 4.667 41.25 L 3.267 41.85 L 1.467 42.65 Q 1.067 42.75 0.867 42.35 Q 0.667 41.95 1.167 41.75 L 2.867 41.05 L 4.367 40.45 L 5.367 40.15 L 5.367 39.15 L 4.167 39.45 L 2.567 40.05 L 1.067 40.85 Q 0.667 41.05 0.467 40.65 Q 0.267 40.25 0.667 40.05 L 2.167 39.25 L 3.867 38.65 L 3.867 38.55 L 5.267 38.25 L 5.267 37.65 L 5.267 37.35 L 4.367 37.65 L 2.667 38.25 L 1.067 38.95 Q 0.667 39.15 0.467 38.75 Q 0.267 38.35 0.667 38.15 L 2.267 37.45 L 2.367 37.35 L 4.067 36.85 L 5.267 36.35 L 5.267 35.35 L 4.067 35.95 L 2.467 36.65 L 0.867 37.25 Q 0.467 37.45 0.267 36.95 Q 0.167 36.55 0.567 36.45 L 2.067 35.85 L 3.767 35.05 L 5.267 34.45 Q 5.267 33.85 5.367 33.25 L 4.467 33.65 L 2.767 34.15 L 1.267 34.85 Q 0.867 35.05 0.667 34.65 Q 0.467 34.25 0.867 34.05 L 2.367 33.35 L 2.367 33.25 L 2.467 33.25 L 4.167 32.85 L 5.367 32.15 L 5.367 31.25 L 4.367 31.55 L 2.667 31.95 L 0.967 32.55 Q 0.567 32.65 0.367 32.25 Q 0.267 31.85 0.667 31.65 L 2.467 31.15 L 4.067 30.65 L 5.467 30.25 L 5.467 29.35 L 4.067 29.75 L 2.367 30.35 L 0.867 30.85 Q 0.467 31.05 0.267 30.65 Q 0.167 30.15 0.567 30.05 L 2.167 29.45 L 3.767 28.95 L 3.767 28.85 L 5.567 28.45 L 5.567 27.45 L 4.567 27.75 L 2.967 28.25 L 1.267 28.75 Q 0.767 28.85 0.667 28.45 Q 0.567 27.95 0.967 27.85 L 2.767 27.35 L 4.267 26.95 L 5.667 26.55 Q 5.667 26.05 5.767 25.45 L 4.167 26.05 L 2.767 26.55 L 1.267 27.15 Q 0.867 27.35 0.667 26.95 Q 0.567 26.45 0.967 26.35 L 2.367 25.75 L 3.867 25.15 L 5.767 24.45 Q 5.767 24.15 5.817 23.9 Q 5.867 23.65 5.867 23.35 L 5.867 23.15 L 4.167 23.75 L 2.667 24.45 L 2.567 24.45 L 0.967 25.05 Q 0.567 25.15 0.367 24.75 Q 0.267 24.35 0.667 24.15 L 2.267 23.65 L 3.867 22.95 L 5.567 22.25 L 5.667 22.25 L 5.967 22.15 Q 5.967 21.45 5.767 21.15 L 4.067 21.75 L 2.367 22.45 L 0.667 23.25 Q 0.267 23.45 0.067 23.05 Q -0.133 22.65 0.267 22.45 L 1.967 21.65 L 3.767 20.85 L 5.567 20.25 L 6.067 20.15 Q 6.067 19.75 6.167 19.45 L 4.567 20.15 L 2.967 20.65 L 1.467 21.15 Q 1.067 21.35 0.867 20.95 Q 0.767 20.55 1.167 20.35 L 2.767 19.75 L 4.267 19.35 L 6.167 18.45 Q 6.167 18.15 6.117 17.85 Q 6.067 17.55 5.767 17.25 L 4.267 17.85 L 2.467 18.25 L 1.067 18.85 Q 0.667 18.95 0.467 18.55 Q 0.367 18.15 0.767 17.95 L 2.167 17.45 L 2.267 17.45 L 3.967 16.95 L 5.467 16.35 L 5.567 16.35 L 6.167 16.25 Q 6.167 15.65 5.867 15.45 L 4.167 16.15 L 2.667 16.75 L 1.067 17.25 Q 0.667 17.45 0.467 16.95 Q 0.367 16.55 0.767 16.45 L 2.367 15.85 L 3.867 15.35 L 5.467 14.65 L 6.267 14.35 Q 6.267 13.65 5.967 13.35 L 4.567 13.85 L 3.167 14.45 L 1.567 15.05 Q 1.167 15.15 0.967 14.75 Q 0.867 14.35 1.267 14.15 L 2.767 13.65 L 4.267 13.05 L 5.667 12.45 L 5.767 12.45 L 6.267 12.35 Q 6.267 11.75 5.867 11.55 L 4.467 12.05 L 2.867 12.65 L 1.267 13.25 Q 0.867 13.45 0.667 12.95 Q 0.567 12.55 0.967 12.45 L 2.567 11.85 L 4.167 11.15 L 5.567 10.75 L 6.167 10.45 L 6.167 9.85 L 6.167 9.65 L 6.167 9.75 L 6.067 9.75 L 4.467 10.15 L 3.067 10.65 L 1.467 11.35 Q 1.067 11.55 0.867 11.15 Q 0.667 10.75 1.067 10.55 L 2.667 9.85 L 2.767 9.75 L 4.167 9.35 L 6.167 8.65 Q 6.167 7.85 5.867 7.55 L 4.467 8.05 L 2.767 8.55 L 1.267 9.35 Q 0.867 9.55 0.667 9.15 Q 0.467 8.75 0.867 8.55 L 2.367 7.75 L 2.467 7.75 L 4.167 7.15 L 5.667 6.75 L 6.167 6.55 L 6.167 6.25 L 6.167 6.05 Q 6.167 5.65 5.867 5.45 L 4.167 6.25 L 1.267 7.55 Q 0.867 7.75 0.667 7.35 Q 0.467 6.95 0.867 6.75 L 3.767 5.45 L 5.467 4.65 L 5.567 4.65 L 6.067 4.45 Q 6.067 4.15 5.667 4.15 L 3.967 4.65 Q 3.667 4.75 3.467 4.65 L 1.967 5.35 Q 1.567 5.55 1.367 5.15 Q 1.167 4.75 1.567 4.55 L 3.167 3.75 L 3.267 3.75 L 4.667 3.25 L 6.367 2.75 L 6.467 2.65 Q 6.767 1.65 7.367 1.15 Q 8.367 0.15 9.517 0.05 Q 10.667 -0.05 11.867 0.05 Q 12.267 0.05 12.467 0.15 Q 15.867 0.35 19.317 0.45 Q 22.767 0.55 26.167 0.55 L 27.267 0.55 Q 28.767 0.45 30.217 0.65 Q 31.667 0.85 32.667 2.05 Q 33.467 3.05 33.617 4.15 Q 33.767 5.25 33.667 6.45 L 33.667 7.15 L 33.667 8.55 L 33.667 9.85 L 33.667 11.5 L 33.667 13.15 Q 33.667 14.95 33.517 16.75 Q 33.367 18.55 33.267 20.35 L 33.267 22 L 33.267 23.65 L 33.267 24.05 L 33.267 24.25 L 35.167 24.25 Q 36.867 24.15 38.567 24 Q 40.267 23.85 41.967 23.75 L 43.367 23.25 L 45.167 22.55 L 46.867 21.95 Q 46.967 21.55 46.967 21.05 L 45.567 21.55 L 43.767 22.25 L 42.067 22.75 Q 41.667 22.95 41.467 22.45 Q 41.367 22.05 41.767 21.95 L 43.467 21.35 L 45.267 20.65 L 47.067 20.05 L 47.067 19.85 L 47.067 19.55 Q 47.167 19.35 47.167 19.15 L 45.567 19.65 L 43.967 20.35 L 42.367 20.95 Q 41.967 21.15 41.767 20.65 Q 41.667 20.25 42.067 20.15 L 43.567 19.55 L 45.167 18.75 L 45.267 18.75 L 47.267 18.15 Q 47.367 17.45 47.167 17.25 L 45.667 17.85 L 44.067 18.25 L 42.367 18.95 Q 41.967 19.15 41.767 18.65 Q 41.667 18.25 42.067 18.15 L 43.767 17.45 L 43.867 17.45 L 45.367 16.95 L 46.767 16.45 L 47.467 16.15 Q 47.467 15.45 47.067 15.35 L 46.967 15.35 L 45.567 15.85 L 43.867 16.55 L 42.167 17.35 Q 41.767 17.55 41.567 17.15 Q 41.367 16.65 41.767 16.55 L 43.467 15.75 L 45.267 14.95 L 46.667 14.45 L 47.567 14.15 Q 47.567 13.55 47.367 13.35 L 47.267 13.35 L 45.767 13.85 L 43.967 14.35 L 42.567 14.85 Q 42.167 14.95 41.967 14.55 Q 41.867 14.15 42.267 13.95 L 43.767 13.55 L 45.467 12.95 L 46.967 12.45 L 47.567 12.25 Q 47.567 11.45 47.067 11.25 L 45.567 11.85 L 44.167 12.65 L 44.067 12.65 L 42.567 13.15 Q 42.167 13.25 41.967 12.85 Q 41.867 12.35 42.267 12.25 L 43.767 11.85 L 45.167 11.05 L 45.267 11.05 L 46.767 10.35 L 46.867 10.35 L 47.567 10.15 Q 47.567 9.55 47.067 9.45 L 45.467 9.85 L 43.767 10.45 L 42.167 11.15 Q 41.767 11.25 41.567 10.85 Q 41.367 10.45 41.867 10.25 L 43.367 9.65 L 43.367 9.55 L 43.467 9.55 L 45.167 9.05 L 46.867 8.55 L 47.367 8.35 L 47.367 7.55 L 47.367 7.65 L 47.267 7.65 L 45.667 8.15 L 43.967 8.85 L 42.267 9.55 Q 41.867 9.75 41.667 9.35 Q 41.467 8.95 41.867 8.75 L 43.567 8.05 L 43.567 7.95 L 45.367 7.35 L 47.267 6.65 L 47.267 6.45 Q 47.167 5.85 47.167 5.55 L 45.667 6.25 L 44.267 6.95 L 44.167 6.95 L 42.567 7.35 Q 42.067 7.55 41.967 7.05 Q 41.867 6.65 42.267 6.55 L 43.867 6.05 L 45.267 5.45 L 46.967 4.65 L 47.067 4.65 Q 47.067 4.35 47.167 4.15 L 46.267 4.55 L 44.667 5.05 L 43.067 5.45 Q 42.567 5.55 42.467 5.15 Q 42.367 4.75 42.767 4.65 L 44.367 4.15 Q 44.467 3.95 44.667 3.95 L 46.367 3.35 L 47.467 2.95 Q 47.667 2.45 48.067 2.05 Q 48.967 1.05 50.067 0.9 Q 51.167 0.75 52.367 0.85 L 52.867 0.85 Q 55.867 0.95 58.917 1 Q 61.967 1.05 64.967 1.15 L 67.167 1.15 L 69.267 1.15 L 69.867 1.15 Q 71.167 1.15 72.367 1.3 Q 73.567 1.45 74.667 2.35 Q 75.867 3.55 76.017 5.1 Q 76.167 6.65 76.167 8.15 Q 76.167 8.45 76.117 8.75 Q 76.067 9.05 76.067 9.35 L 76.067 13.45 Q 76.067 15.45 76.167 17.45 Q 76.167 20.15 76.217 22.8 Q 76.267 25.45 76.067 28.05 Q 75.967 30.65 75.967 33.2 Q 75.967 35.75 75.667 38.35 Q 75.467 40.75 75.217 43.1 Q 74.967 45.45 74.867 47.75 Q 74.767 49.35 74.767 50.85 L 74.767 53.85 Q 74.867 55.35 74.867 56.8 Q 74.867 58.25 74.767 59.65 Q 74.667 61.65 74.617 63.55 Q 74.567 65.45 74.567 67.45 L 74.567 67.95 Q 74.567 69.15 74.367 70.3 Q 74.167 71.45 73.267 72.35 Q 72.267 73.25 71.167 73.4 Q 70.067 73.55 68.867 73.45 L 68.167 73.45 L 67.867 73.45 L 66.367 74.15 L 64.667 74.75 Q 64.367 74.95 64.067 74.65 L 62.267 75.05 Q 61.867 75.25 61.767 74.75 Q 61.667 74.75 61.667 74.65 L 60.967 74.85 Q 60.467 75.05 60.367 74.55 Q 60.267 74.35 60.367 74.25 L 58.667 74.75 Q 58.267 74.95 58.067 74.55 Q 57.967 74.05 58.367 73.95 L 58.967 73.75 L 58.867 73.75 L 58.367 73.95 L 56.867 74.55 Q 56.467 74.75 56.267 74.35 L 54.967 74.75 Q 54.567 74.95 54.367 74.55 Q 54.267 74.15 54.867 73.85 L 54.267 74.05 L 52.567 74.75 Q 52.167 74.95 51.967 74.55 L 50.967 74.95 Q 50.567 75.15 50.367 74.75 L 50.367 74.55 L 48.767 75.25 Q 48.367 75.45 48.167 75.05 Q 48.067 74.65 48.467 74.45 L 47.367 74.85 Q 46.867 75.05 46.767 74.65 Q 46.567 74.25 46.967 74.05 L 48.467 73.45 L 49.167 73.25 L 49.067 73.25 L 48.367 73.45 L 46.667 74.15 L 44.867 74.75 Q 44.467 74.95 44.267 74.55 Q 44.167 74.15 44.567 73.95 L 46.267 73.25 L 48.167 72.55 Q 47.967 72.45 47.867 72.35 Q 47.767 72.25 47.667 72.05 L 46.267 72.65 L 44.567 73.45 L 42.867 73.95 Q 42.367 74.15 42.267 73.75 Q 42.167 73.25 42.567 73.15 L 44.267 72.55 L 45.967 71.85 L 47.267 71.25 Q 47.067 70.95 46.967 70.55 L 45.667 71.05 L 44.167 71.55 L 42.567 72.05 Q 42.167 72.25 41.967 71.85 Q 41.867 71.35 42.267 71.25 L 43.967 70.65 L 45.367 70.25 L 46.867 69.55 Q 46.867 69.15 46.967 68.45 L 45.267 69.05 L 43.867 69.45 L 42.167 70.25 Q 41.767 70.45 41.567 69.95 Q 41.367 69.55 41.767 69.35 L 43.467 68.65 L 43.567 68.65 L 44.967 68.15 L 47.067 67.45 L 47.067 67.25 L 47.067 67.15 Q 47.167 66.55 47.167 66.15 L 45.567 66.95 L 44.067 67.35 L 42.467 68.15 Q 42.067 68.35 41.867 67.95 Q 41.667 67.55 42.067 67.35 L 43.667 66.55 L 43.767 66.55 L 45.267 66.05 L 46.767 65.35 Q 46.867 65.35 47.267 65.15 L 47.267 64.45 L 47.167 64.55 L 45.567 65.05 L 44.167 65.85 L 42.667 66.55 Q 42.267 66.75 42.067 66.35 Q 41.867 65.95 42.267 65.75 L 43.767 65.05 L 45.167 64.25 L 45.267 64.25 L 47.267 63.45 Q 47.367 62.85 47.267 62.55 L 45.667 63.15 L 45.667 63.25 L 44.067 63.75 L 42.267 64.55 Q 41.867 64.75 41.667 64.25 Q 41.467 63.85 41.967 63.75 L 43.667 62.95 L 43.767 62.95 L 45.367 62.35 L 47.267 61.45 L 47.267 60.25 L 45.567 60.75 L 43.967 61.55 L 42.167 62.15 Q 41.767 62.35 41.567 61.95 Q 41.467 61.45 41.867 61.35 L 43.567 60.65 L 45.167 59.95 Q 45.267 59.95 45.267 59.85 L 47.267 59.35 Q 47.167 58.95 47.167 58.45 L 45.567 59.05 L 44.067 59.85 L 42.567 60.45 Q 42.167 60.55 41.967 60.15 Q 41.867 59.75 42.267 59.55 L 43.667 59.05 L 45.167 58.25 L 45.267 58.25 L 47.167 57.55 Q 47.067 57.15 47.067 56.75 L 45.567 57.45 L 43.967 57.95 L 42.167 58.75 Q 41.767 58.95 41.567 58.55 Q 41.367 58.05 41.867 57.95 L 43.567 57.15 L 43.667 57.15 L 45.267 56.55 L 47.067 55.75 Q 46.967 55.15 46.967 54.65 L 45.667 55.35 L 44.167 55.95 L 42.667 56.65 Q 42.267 56.85 42.067 56.45 Q 41.867 56.05 42.267 55.85 L 43.767 55.15 L 43.767 55.05 L 45.367 54.55 L 46.767 53.75 L 46.867 53.65 L 46.867 52.65 L 45.667 53.05 L 44.067 53.55 L 42.467 54.05 Q 41.967 54.15 41.867 53.75 Q 41.767 53.25 42.167 53.15 L 43.867 52.65 L 45.367 52.25 L 46.867 51.65 L 46.867 51.45 L 46.867 50.85 L 45.667 51.25 L 43.967 51.75 L 42.267 52.35 Q 41.867 52.45 41.667 52.05 Q 41.567 51.65 41.967 51.45 L 43.767 50.95 L 45.367 50.35 L 46.867 49.85 L 46.867 49.35 L 46.867 48.85 L 46.367 48.85 L 45.467 49.25 L 44.067 50.05 L 43.967 50.05 L 42.267 50.45 Q 41.767 50.65 41.667 50.15 Q 41.567 49.75 41.967 49.65 L 43.667 49.15 L 44.367 48.85 L 44.267 48.85 L 43.667 49.05 L 42.067 49.55 L 40.667 50.05 Q 40.267 50.25 40.067 49.85 L 40.067 49.75 L 38.567 50.25 Q 38.167 50.45 37.967 50.05 L 37.967 49.95 L 37.067 50.25 Q 36.767 50.35 36.567 50.15 L 35.067 50.65 Q 34.667 50.85 34.467 50.45 Q 34.467 50.25 34.167 50.25 L 34.167 50.9 Q 34.167 51.25 34.067 51.55 Q 34.067 53.05 33.967 54.55 Q 33.867 56.05 33.867 57.45 Q 33.867 58.45 33.917 59.35 Q 33.967 60.25 33.967 61.15 Q 34.067 62.15 34.067 63.2 L 34.067 65.25 L 34.067 66.35 Q 34.167 67.85 33.967 69.4 Q 33.767 70.95 32.667 72.15 Q 31.567 73.25 30.267 73.4 Q 28.967 73.55 27.667 73.65 L 27.067 73.65 L 26.567 73.65 L 25.067 74.45 L 24.967 74.45 L 23.567 74.85 Q 23.167 75.05 22.967 74.65 L 22.967 74.55 L 21.367 74.95 Q 20.967 75.15 20.867 74.65 Q 20.767 74.55 20.867 74.35 L 19.767 74.85 Q 19.367 75.05 19.167 74.65 L 19.167 74.45 L 18.067 74.85 Q 17.667 75.05 17.467 74.65 L 17.467 74.4 Q 17.467 74.25 17.367 74.25 L 15.667 74.95 Q 15.267 75.15 15.067 74.75 Q 14.867 74.35 15.267 74.15 Z M 10.067 2.45 L 9.167 2.75 L 9.067 2.85 Q 8.767 3.05 8.667 3.5 Q 8.567 3.95 8.467 4.25 L 8.467 5.35 Q 8.567 5.75 8.567 5.95 L 8.567 7.9 L 8.567 9.75 Q 8.667 12.25 8.617 14.7 Q 8.567 17.15 8.567 19.65 Q 8.467 20.55 8.417 21.55 Q 8.367 22.55 8.267 23.55 L 8.067 26.75 L 7.867 29.95 L 7.867 30.25 Q 7.767 30.95 7.767 31.75 Q 7.867 31.75 7.867 31.85 Q 7.967 32.15 7.767 32.35 Q 7.767 33.05 7.667 33.65 Q 7.767 33.75 7.867 33.75 Q 7.967 34.15 7.667 34.35 L 7.667 35.55 Q 7.767 35.65 7.767 35.75 Q 7.967 36.05 7.667 36.25 L 7.667 37.55 L 7.867 37.75 Q 7.967 38.05 7.667 38.25 Q 7.767 38.85 7.767 39.55 L 7.867 39.65 Q 7.967 39.95 7.767 40.15 L 7.767 41.55 L 7.867 41.65 L 7.867 42.05 Q 8.067 48.05 8.867 53.65 L 8.867 53.75 Q 9.167 58.45 8.967 63.35 Q 8.867 65.25 8.667 67.45 Q 8.667 67.65 8.567 68.05 Q 8.467 68.35 8.417 68.7 Q 8.367 69.05 8.467 69.35 Q 8.467 69.65 8.617 70.05 Q 8.767 70.45 8.867 70.75 L 10.167 71.45 Q 10.367 71.45 10.467 71.65 Q 10.767 71.55 11.117 71.55 Q 11.467 71.55 11.867 71.45 Q 12.167 71.35 12.367 71.55 L 13.867 71.55 Q 14.067 71.45 14.267 71.55 L 14.967 71.55 Q 15.367 71.55 15.867 71.45 Q 16.067 71.45 16.267 71.55 L 17.167 71.55 L 17.767 71.55 Q 17.967 71.35 18.167 71.55 L 18.917 71.55 Q 19.267 71.55 19.767 71.45 Q 20.067 71.35 20.167 71.55 L 20.917 71.55 L 21.667 71.55 Q 21.867 71.35 22.167 71.55 Q 22.967 71.55 23.667 71.45 L 23.867 71.45 Q 24.767 71.45 25.567 71.35 Q 26.067 71.35 26.517 71.3 Q 26.967 71.25 27.467 71.25 Q 27.667 71.15 28.167 71.15 Q 28.867 71.15 29.617 71.05 Q 30.367 70.95 30.967 70.45 Q 31.667 69.75 31.717 68.55 Q 31.767 67.35 31.767 66.25 Q 31.667 65.55 31.667 65.25 L 31.667 63.15 Q 31.667 62.15 31.567 61.15 Q 31.567 60.25 31.517 59.35 Q 31.467 58.45 31.467 57.55 Q 31.467 55.95 31.567 54.45 Q 31.667 52.95 31.667 51.45 Q 31.667 51.15 31.717 50.9 Q 31.767 50.65 31.767 50.45 Q 31.667 50.35 31.667 50.25 Q 31.567 50.05 31.667 49.85 Q 31.467 49.75 31.467 49.55 Q 31.267 49.15 31.767 48.95 L 31.767 48.55 Q 31.667 48.15 31.667 47.7 Q 31.667 47.25 32.067 46.85 Q 32.167 46.85 32.367 46.75 Q 32.567 46.55 32.667 46.55 L 34.467 46.55 L 36.267 46.55 Q 38.467 46.45 40.667 46.45 L 44.967 46.45 Q 45.867 46.45 46.767 46.5 Q 47.667 46.55 48.567 46.55 L 48.867 46.65 Q 49.067 46.75 49.167 46.85 Q 49.467 47.25 49.467 47.7 Q 49.467 48.15 49.367 48.55 Q 49.267 49.15 49.267 49.35 L 49.267 51.45 Q 49.267 52.75 49.317 54.05 Q 49.367 55.35 49.467 56.65 Q 49.667 59.35 49.717 62.1 Q 49.767 64.85 49.467 67.45 Q 49.467 67.65 49.367 68.15 Q 49.267 68.85 49.267 69.55 Q 49.267 70.25 49.667 70.75 Q 49.767 70.75 49.767 70.85 Q 50.067 71.05 50.417 71.2 Q 50.767 71.35 51.067 71.35 Q 51.367 71.45 52.167 71.45 L 52.667 71.45 L 56.367 71.45 Q 58.867 71.35 61.317 71.25 Q 63.767 71.15 66.167 71.05 L 68.167 71.05 Q 68.467 71.05 68.967 71.15 Q 69.667 71.15 70.367 71.1 Q 71.067 71.05 71.567 70.65 Q 72.067 70.15 72.117 69.45 Q 72.167 68.75 72.167 68.05 L 72.167 67.35 Q 72.167 65.45 72.217 63.5 Q 72.267 61.55 72.367 59.55 Q 72.467 58.15 72.467 56.7 Q 72.467 55.25 72.367 53.75 L 72.367 50.7 Q 72.367 49.15 72.467 47.65 Q 72.567 45.25 72.817 42.9 Q 73.067 40.55 73.267 38.15 Q 73.567 35.55 73.567 33 Q 73.567 30.45 73.667 27.95 Q 73.867 25.35 73.817 22.7 Q 73.767 20.05 73.767 17.35 Q 73.667 15.35 73.667 13.35 L 73.667 9.35 Q 73.667 9.05 73.767 8.25 Q 73.867 7.15 73.817 5.95 Q 73.767 4.75 73.067 4.15 Q 72.467 3.65 71.617 3.55 Q 70.767 3.45 69.967 3.55 L 69.267 3.55 L 67.117 3.55 L 64.967 3.55 Q 61.967 3.45 58.867 3.4 Q 55.767 3.35 52.767 3.25 L 52.167 3.25 Q 51.567 3.15 50.917 3.15 Q 50.267 3.15 49.867 3.649 Q 49.467 4.15 49.467 4.8 Q 49.467 5.45 49.567 6.15 Q 49.667 6.55 49.667 6.75 Q 49.667 7.25 49.717 7.7 Q 49.767 8.15 49.867 8.65 Q 50.167 11.35 49.967 14.2 Q 49.767 17.05 49.467 19.85 Q 49.467 20.75 49.367 21.65 Q 49.267 22.55 49.167 23.55 Q 49.067 23.75 49.167 24.25 Q 49.167 24.75 49.117 25.15 Q 49.067 25.55 48.667 25.95 Q 48.167 26.25 47.767 26.25 Q 47.367 26.25 46.867 26.15 Q 46.367 26.05 46.067 26.05 Q 45.167 26.05 44.167 26.15 L 43.867 26.15 Q 43.667 26.15 43.267 26.35 Q 42.867 26.45 42.667 26.15 Q 40.867 26.25 39.017 26.4 Q 37.167 26.55 35.267 26.65 Q 34.367 26.65 33.517 26.7 Q 32.667 26.75 31.767 26.75 Q 31.667 26.75 31.467 26.65 Q 31.167 26.55 31.167 26.45 Q 30.767 26.05 30.767 25.65 L 30.767 24.85 Q 30.867 24.35 30.867 24.05 L 30.867 23.65 L 30.867 22 L 30.867 20.35 Q 30.967 18.55 31.117 16.7 Q 31.267 14.85 31.267 13.05 L 31.267 11.45 L 31.267 9.85 L 31.267 8.5 L 31.267 7.15 L 31.267 6.35 Q 31.367 5.65 31.317 4.9 Q 31.267 4.15 30.867 3.55 Q 30.267 2.95 29.217 2.9 Q 28.167 2.85 27.167 2.85 Q 26.467 2.95 26.167 2.95 Q 22.667 2.95 19.217 2.85 Q 15.767 2.75 12.267 2.45 L 11.667 2.45 Q 11.267 2.45 10.867 2.4 Q 10.467 2.35 10.067 2.45 Z M 46.767 22.95 L 45.467 23.45 L 44.767 23.75 Q 45.467 23.65 46.067 23.65 Q 46.267 23.65 46.767 23.75 L 46.767 23.25 L 46.767 22.95 Z" vector-effect="non-scaling-stroke"/></g></svg>